<svg width="574" height="440" viewBox="0 0 574 440" fill="none" xmlns="http://www.w3.org/2000/svg">
<g clip-path="url(#clip0_160_33)">
<path d="M184.426 438.595C184.986 439.072 185.563 439.538 186.146 439.997H256.981C257.387 439.538 257.794 439.072 258.195 438.595C261.465 434.673 264.344 430.441 266.791 425.959C272.606 415.485 274.61 401.753 274.61 387.768C274.61 386.913 274.604 386.059 274.586 385.205C274.521 381.282 274.303 377.352 273.979 373.488C273.92 372.816 273.861 372.151 273.797 371.485C273.272 365.942 272.536 360.546 271.699 355.503C271.593 354.861 271.487 354.225 271.375 353.594C269.67 343.579 267.384 333.671 264.529 323.921C264.529 323.921 264.434 323.945 264.252 323.992C263.727 324.139 262.472 324.487 260.628 325.035C255.549 326.543 246.01 329.583 235.009 334.101C234.408 334.343 233.801 334.596 233.189 334.855C223.882 338.691 214.874 343.214 206.238 348.387C205.702 348.711 205.172 349.04 204.642 349.37V349.418L205.802 386.984L195.432 355.709C193.317 357.317 191.296 358.984 189.369 360.711C188.839 361.182 188.309 361.665 187.796 362.166C183.419 366.177 179.683 370.836 176.719 375.98C161.205 403.944 167.716 424.504 184.426 438.595Z" fill="#F2F2F2"/>
<path d="M194.413 439.997H196.298C196.31 439.532 196.328 439.066 196.357 438.595C197.117 424.462 203.18 408.857 211.435 393.794C211.73 393.246 212.03 392.687 212.348 392.139C216.355 384.975 220.821 377.965 225.435 371.302C225.788 370.784 226.154 370.26 226.519 369.741C232.658 360.981 238.998 352.875 244.725 345.954C245.126 345.459 245.538 344.976 245.945 344.498C254.435 334.319 261.441 326.902 264.252 323.992C264.67 323.562 264.994 323.232 265.218 323.002C265.424 322.778 265.548 322.661 265.571 322.637L264.911 321.977L264.906 321.96L264.234 321.3C264.21 321.329 263.804 321.718 263.085 322.466C262.478 323.085 261.648 323.951 260.628 325.035C257.069 328.805 251.183 335.22 244.372 343.356C243.977 343.827 243.571 344.316 243.164 344.805C238.515 350.419 233.478 356.781 228.487 363.621C227.232 365.341 226.014 367.047 224.834 368.74C224.462 369.258 224.097 369.777 223.744 370.295C218.753 377.494 214.395 384.418 210.669 391.067L209.738 392.734C200.24 410.053 195.126 425.393 194.466 438.595C194.442 439.066 194.425 439.532 194.413 439.997Z" fill="white"/>
<path d="M233.972 332.722C234.308 333.188 234.65 333.647 235.009 334.101C237.711 337.582 240.859 340.694 244.372 343.355C244.884 343.732 245.409 344.121 245.945 344.498C247.407 345.519 248.922 346.462 250.482 347.326C256.909 350.905 264.039 353.044 271.375 353.594C271.611 353.617 271.852 353.635 272.088 353.647C272.194 354.277 272.294 354.908 272.406 355.55C272.171 355.538 271.935 355.526 271.699 355.503C263.928 354.997 256.367 352.769 249.563 348.981C247.898 348.058 246.283 347.047 244.725 345.953C244.195 345.582 243.677 345.193 243.164 344.805C239.407 341.951 236.051 338.604 233.189 334.855C232.847 334.401 232.511 333.942 232.181 333.482C232.794 333.223 233.389 332.97 233.972 332.722Z" fill="white"/>
<path d="M205.596 347.055C205.802 347.503 206.02 347.945 206.238 348.387C210.44 356.757 216.876 363.801 224.834 368.74C225.388 369.087 225.947 369.423 226.519 369.741C226.69 369.841 226.872 369.947 227.043 370.042C234.158 373.989 242.112 376.179 250.245 376.43C258.377 376.681 266.452 374.986 273.797 371.485C273.974 371.403 274.145 371.32 274.315 371.238C274.38 371.909 274.439 372.581 274.486 373.258C274.321 373.335 274.15 373.417 273.979 373.488C266.424 376.97 258.154 378.623 249.841 378.312C241.527 378 233.404 375.734 226.13 371.697C225.894 371.567 225.664 371.438 225.435 371.302C224.863 370.972 224.298 370.637 223.744 370.295C215.588 365.212 208.981 357.991 204.642 349.417C204.412 348.976 204.194 348.528 203.982 348.074C204.518 347.733 205.054 347.391 205.596 347.055Z" fill="white"/>
<path d="M189.057 359.373C189.157 359.821 189.257 360.268 189.369 360.71C192.4 373.146 200.005 383.984 210.669 391.067C211.217 391.438 211.783 391.791 212.348 392.139C212.955 392.504 213.562 392.869 214.187 393.211C223.784 398.522 234.833 400.611 245.707 399.169C256.581 397.728 266.705 392.833 274.586 385.205C274.722 385.081 274.851 384.952 274.981 384.822C274.981 385.7 274.987 386.566 274.975 387.438C274.857 387.55 274.734 387.662 274.61 387.768C266.404 395.201 256.077 399.882 245.078 401.155C234.078 402.428 222.955 400.229 213.268 394.866C212.643 394.525 212.03 394.171 211.435 393.794C210.858 393.452 210.298 393.099 209.738 392.734C198.923 385.579 191.114 374.7 187.796 362.165C187.684 361.741 187.572 361.317 187.472 360.887C187.985 360.369 188.521 359.88 189.057 359.373Z" fill="white"/>
<path d="M238.457 239.445C238.457 252.699 249.202 263.445 262.457 263.445H550C563.255 263.445 574 252.699 574 239.445V35.7466C574 22.4918 563.255 11.7466 550 11.7466H262.457C249.202 11.7466 238.457 22.4917 238.457 35.7466V239.445Z" fill="white"/>
<path d="M492.692 64.278C485.315 64.278 479.335 58.2993 479.335 50.9242C479.335 43.549 485.315 37.5703 492.692 37.5703C500.068 37.5703 506.048 43.549 506.048 50.9242C506.048 58.2993 500.068 64.278 492.692 64.278Z" fill="#E6E6E6"/>
<path d="M461.845 42.0215C462.435 42.0225 463 42.2575 463.416 42.6748C463.833 43.092 464.067 43.6575 464.067 44.2471C464.067 44.8367 463.833 45.4022 463.416 45.8195C463 46.2367 462.435 46.4717 461.845 46.4728H299.317C298.727 46.4717 298.162 46.2367 297.746 45.8195C297.329 45.4022 297.095 44.8367 297.095 44.2471C297.095 43.6575 297.329 43.092 297.746 42.6748C298.162 42.2575 298.727 42.0225 299.317 42.0215H461.845Z" fill="#E6E6E6"/>
<path d="M461.845 55.375C462.435 55.3738 463.002 55.607 463.42 56.0236C463.839 56.4401 464.074 57.0057 464.076 57.5959C464.077 58.1862 463.843 58.7528 463.427 59.1711C463.01 59.5894 462.445 59.825 461.854 59.8263H359.102C358.81 59.8268 358.52 59.7696 358.249 59.658C357.979 59.5464 357.733 59.3825 357.526 59.1758C357.319 58.9691 357.154 58.7236 357.042 58.4533C356.93 58.183 356.872 57.8932 356.872 57.6006C356.872 57.308 356.93 57.0183 357.042 56.748C357.154 56.4777 357.319 56.2322 357.526 56.0255C357.733 55.8187 357.979 55.6549 358.249 55.5433C358.52 55.4317 358.81 55.3745 359.102 55.375H461.845Z" fill="#E6E6E6"/>
<path d="M238.457 239.445C238.457 252.699 249.202 263.445 262.457 263.445H550C563.255 263.445 574 252.699 574 239.445V35.7466C574 22.4918 563.255 11.7466 550 11.7466H262.457C249.202 11.7466 238.457 22.4917 238.457 35.7466V239.445ZM570.244 235.69C570.244 248.944 559.499 259.69 546.244 259.69H266.213C252.958 259.69 242.213 248.945 242.213 235.69V39.5015C242.213 26.2467 252.958 15.5015 266.213 15.5015H546.244C559.499 15.5015 570.244 26.2466 570.244 39.5015V235.69Z" fill="#B5B5B5"/>
<path d="M555.246 88.5039V238.209H257.212V88.5039H555.246ZM258.645 125.572H331.362V89.9365H258.645V125.572ZM405.512 125.572V89.9365H332.795V125.572H405.512ZM332.795 127.005V162.64H405.512V127.005H332.795ZM406.945 125.572H479.662V89.9365H406.945V125.572ZM406.945 127.005V162.64H479.662V127.005H406.945ZM481.095 162.64H553.813V127.005H481.095V162.64ZM481.095 164.073V199.709H553.813V164.073H481.095ZM479.662 164.073H406.945V199.709H479.662V164.073ZM406.945 201.141V236.777H479.662V201.141H406.945ZM405.512 201.141H332.795V236.777H405.512V201.141ZM405.512 199.709V164.073H332.795V199.709H405.512ZM331.362 164.073H258.645V199.709H331.362V164.073ZM331.362 162.64V127.005H258.645V162.64H331.362ZM481.095 89.9365V125.572H553.813V89.9365H481.095ZM553.813 201.141H481.095V236.777H553.813V201.141ZM331.362 236.777V201.141H258.645V236.777H331.362Z" fill="#E4E4E4"/>
<path d="M432.9 128.779L462.555 128.108C465.521 116.62 464.186 105.681 461.819 95.6011L432.164 96.2724C435.163 106.87 435.417 118.057 432.9 128.779Z" fill="#109D58"/>
<path d="M456.738 102.785L456.722 101.657L441.358 102.206L441.375 103.334L456.738 102.785Z" fill="white"/>
<path d="M456.802 107.298L456.787 106.17L441.424 106.719L441.439 107.847L456.802 107.298Z" fill="white"/>
<path d="M456.868 111.811L456.851 110.683L441.488 111.232L441.504 112.36L456.868 111.811Z" fill="white"/>
<path d="M456.932 116.323L456.916 115.195L441.553 115.745L441.569 116.873L456.932 116.323Z" fill="white"/>
<path d="M456.997 120.836L456.981 119.708L441.617 120.257L441.634 121.386L456.997 120.836Z" fill="white"/>
<path d="M497.378 211.87L527.033 211.198C530 199.71 528.664 188.771 526.297 178.691L496.642 179.363C499.642 189.961 499.895 201.147 497.378 211.87Z" fill="#F0F0F0"/>
<path d="M521.216 185.876L521.201 184.748L505.837 185.296L505.853 186.424L521.216 185.876Z" fill="white"/>
<path d="M521.281 190.388L521.265 189.26L505.902 189.81L505.918 190.938L521.281 190.388Z" fill="white"/>
<path d="M521.346 194.901L521.33 193.772L505.967 194.322L505.982 195.45L521.346 194.901Z" fill="white"/>
<path d="M521.411 199.413L521.395 198.285L506.031 198.835L506.048 199.963L521.411 199.413Z" fill="white"/>
<path d="M521.475 203.926L521.459 202.798L506.096 203.347L506.112 204.475L521.475 203.926Z" fill="white"/>
<path d="M342.63 173.906L372.285 173.235C375.251 161.746 373.916 150.808 371.549 140.728L341.894 141.399C344.893 151.997 345.147 163.183 342.63 173.906Z" fill="#F0F0F0"/>
<path d="M366.468 147.912L366.452 146.784L351.088 147.332L351.105 148.461L366.468 147.912Z" fill="white"/>
<path d="M366.533 152.425L366.517 151.296L351.154 151.846L351.169 152.974L366.533 152.425Z" fill="white"/>
<path d="M366.598 156.937L366.581 155.809L351.218 156.358L351.234 157.487L366.598 156.937Z" fill="white"/>
<path d="M366.662 161.45L366.646 160.322L351.283 160.871L351.299 161.999L366.662 161.45Z" fill="white"/>
<path d="M366.727 165.963L366.711 164.834L351.347 165.384L351.364 166.512L366.727 165.963Z" fill="white"/>
<path d="M355.526 166.743L385.181 166.072C388.147 154.583 386.811 143.644 384.444 133.564L354.79 134.236C357.789 144.834 358.042 156.02 355.526 166.743Z" fill="#109D58"/>
<path d="M379.364 140.749L379.348 139.621L363.984 140.169L364.001 141.297L379.364 140.749Z" fill="white"/>
<path d="M379.428 145.261L379.412 144.133L364.049 144.683L364.065 145.811L379.428 145.261Z" fill="white"/>
<path d="M379.493 149.774L379.477 148.646L364.114 149.195L364.13 150.324L379.493 149.774Z" fill="white"/>
<path d="M379.558 154.287L379.542 153.159L364.178 153.708L364.195 154.836L379.558 154.287Z" fill="white"/>
<path d="M379.622 158.8L379.607 157.671L364.243 158.221L364.259 159.349L379.622 158.8Z" fill="white"/>
<path d="M246.151 232.176L275.806 231.505C278.773 220.017 277.437 209.078 275.07 198.998L245.415 199.669C248.415 210.267 248.668 221.454 246.151 232.176Z" fill="#109D58"/>
<path d="M269.99 206.182L269.973 205.054L254.61 205.603L254.626 206.731L269.99 206.182Z" fill="white"/>
<path d="M270.054 210.695L270.038 209.566L254.674 210.116L254.691 211.244L270.054 210.695Z" fill="white"/>
<path d="M270.119 215.208L270.103 214.08L254.74 214.628L254.755 215.756L270.119 215.208Z" fill="white"/>
<path d="M270.184 219.72L270.167 218.592L254.804 219.141L254.821 220.269L270.184 219.72Z" fill="white"/>
<path d="M270.248 224.233L270.232 223.105L254.869 223.654L254.885 224.783L270.248 224.233Z" fill="white"/>
<path d="M278.151 134.51L307.806 133.839C310.773 122.35 309.437 111.412 307.07 101.332L277.415 102.003C280.415 112.601 280.668 123.787 278.151 134.51Z" fill="#F0F0F0"/>
<path d="M301.99 108.516L301.974 107.388L286.61 107.936L286.626 109.065L301.99 108.516Z" fill="white"/>
<path d="M302.054 113.029L302.038 111.9L286.675 112.45L286.691 113.578L302.054 113.029Z" fill="white"/>
<path d="M302.119 117.541L302.103 116.413L286.74 116.962L286.755 118.091L302.119 117.541Z" fill="white"/>
<path d="M302.184 122.054L302.168 120.926L286.804 121.475L286.821 122.603L302.184 122.054Z" fill="white"/>
<path d="M302.248 126.566L302.232 125.438L286.869 125.987L286.885 127.116L302.248 126.566Z" fill="white"/>
<path d="M247.751 208.22C246.728 207.968 245.773 207.495 244.953 206.834C244.133 206.174 243.468 205.341 243.004 204.396C242.541 203.45 242.29 202.414 242.27 201.361C242.25 200.309 242.461 199.264 242.889 198.302L224.191 180.818L237.126 177.709L252.899 194.789C254.469 195.615 255.681 196.987 256.306 198.646C256.931 200.305 256.926 202.135 256.291 203.791C255.657 205.446 254.437 206.811 252.863 207.628C251.289 208.444 249.47 208.655 247.751 208.22H247.751Z" fill="#FFB6B6"/>
<path d="M238.091 194.136L246.812 181.844L214.058 147.972L206.452 94.583C206.076 91.944 205.124 89.4201 203.663 87.1905C202.201 84.9609 200.267 83.0803 197.997 81.6822C195.727 80.2841 193.177 79.4028 190.528 79.1008C187.879 78.7988 185.196 79.0836 182.669 79.9349C178.108 81.4777 174.344 84.7667 172.205 89.0803C170.066 93.3938 169.726 98.3797 171.259 102.944L190.663 160.504L238.091 194.136Z" fill="#E4E4E4"/>
<path d="M176.592 421.623L186.272 421.622L190.877 384.291L176.59 384.292L176.592 421.623Z" fill="#FFB6B6"/>
<path d="M171.384 440H178.253L179.479 433.516L182.619 440H200.837C201.711 440 202.561 439.721 203.264 439.203C203.968 438.686 204.487 437.957 204.747 437.124C205.007 436.29 204.994 435.395 204.709 434.57C204.424 433.745 203.883 433.032 203.164 432.536L188.616 422.49V415.935L173.314 416.848L171.384 440Z" fill="#2F2E41"/>
<path d="M116.87 411.774L125.373 416.4L147.265 385.81L134.715 378.983L116.87 411.774Z" fill="#FFB6B6"/>
<path d="M103.51 425.427L109.544 428.71L113.72 423.6L113.379 430.796L129.381 439.503C130.148 439.92 131.029 440.081 131.894 439.963C132.759 439.845 133.564 439.453 134.191 438.845C134.817 438.237 135.233 437.444 135.378 436.583C135.522 435.722 135.388 434.838 134.994 434.058L127.017 418.282L130.151 412.524L116.273 406.014L103.51 425.427Z" fill="#2F2E41"/>
<path d="M172.513 408.33H192.519V337.105L204.904 290.671C213.792 257.463 216.155 222.848 211.859 188.741L211.842 188.601L211.735 188.511C211.417 188.244 179.718 162.039 159.668 182.086C146.153 195.598 158.852 244.185 159.563 246.852V330.612L172.513 408.33Z" fill="#040F2C"/>
<path d="M217.952 201.678L211.504 137.212C212.342 135.454 224.4 124.319 211.792 104.74L198.174 72.781L172.671 72.3848L172.564 72.4921C166.564 78.4778 162.139 85.8546 159.683 93.9651C157.227 102.076 156.816 110.668 158.487 118.975L166.002 156.543L159.491 182.583L217.952 201.678Z" fill="#E4E4E4"/>
<path d="M184.448 337.473L143.351 395.268L127.586 384.062L161.909 313.542L184.448 337.473Z" fill="#040F2C"/>
<path d="M187.805 66.285C174.8 66.285 164.257 55.7437 164.257 42.7404C164.257 29.7371 174.8 19.1958 187.805 19.1958C200.811 19.1958 211.354 29.7371 211.354 42.7404C211.354 55.7437 200.811 66.285 187.805 66.285Z" fill="#FFB6B6"/>
<path opacity="0.1" d="M193.593 127.9L187.145 166.58L193.593 198.813H206.489L200.627 166.58L193.593 127.9Z" fill="black"/>
<path d="M187.442 232.025C186.658 231.321 186.038 230.454 185.626 229.485C185.213 228.516 185.018 227.469 185.055 226.416C185.091 225.364 185.358 224.332 185.836 223.394C186.314 222.456 186.993 221.634 187.823 220.986L179.561 196.759L192.437 200.107L198.308 222.6C199.304 224.067 199.728 225.848 199.498 227.606C199.268 229.364 198.401 230.976 197.062 232.138C195.723 233.3 194.003 233.93 192.23 233.909C190.457 233.888 188.753 233.218 187.442 232.025Z" fill="#FFB6B6"/>
<path d="M185.552 215.052L199.034 208.313L186.089 163.012L204.522 112.331C205.433 109.825 205.781 107.15 205.542 104.495C205.303 101.841 204.482 99.2709 203.138 96.9688C201.794 94.6668 199.959 92.6889 197.764 91.1754C195.569 89.662 193.068 88.6503 190.438 88.2119C185.688 87.4256 180.819 88.5557 176.9 91.3542C172.981 94.1527 170.333 98.3911 169.536 103.139L159.549 163.055L185.552 215.052Z" fill="#E4E4E4"/>
<path d="M0.000137329 439.144C-0.000167847 439.256 0.0216522 439.367 0.0643768 439.471C0.107101 439.574 0.169907 439.669 0.24913 439.748C0.328354 439.827 0.42244 439.89 0.526016 439.932C0.629593 439.975 0.740616 439.997 0.852646 439.997H464.589C464.815 439.997 465.032 439.907 465.192 439.747C465.352 439.587 465.442 439.37 465.442 439.144C465.442 438.918 465.352 438.701 465.192 438.542C465.032 438.382 464.815 438.292 464.589 438.292H0.852646C0.626724 438.293 0.410202 438.383 0.250443 438.542C0.090683 438.702 0.000717163 438.918 0.000137329 439.144Z" fill="#CACACA"/>
<path d="M96.2183 41.5889C99.1893 46.4111 105.483 48.5369 111.064 47.5713C116.646 46.6058 121.496 43.0038 125.079 38.6166C128.661 34.2293 131.139 29.0651 133.578 23.9532C136.016 18.8412 138.483 13.6731 142.048 9.27132C145.612 4.8695 150.437 1.2398 156.011 0.228815C159.044 -0.321385 162.48 0.0418597 164.693 2.18748C166.219 3.79568 167.052 5.93877 167.013 8.15515C167.978 7.81558 169.011 7.71847 170.022 7.8724C171.033 8.02632 171.991 8.42654 172.811 9.03778C173.63 9.64903 174.287 10.4525 174.723 11.3775C175.159 12.3024 175.361 13.3204 175.311 14.3416C175.393 14.34 175.475 14.3346 175.557 14.3346C185.943 8.43114 201.706 11.8606 201.706 18.3072C207.405 18.3072 214.37 23.9339 214.37 32.4781V32.4781C202.586 32.4781 195.651 47.5738 202.53 58.3977C204.306 61.1585 206.264 63.7981 208.39 66.2989H193.654C192.418 64.5254 191.672 62.4569 191.492 60.3026C190.951 62.2598 190.627 64.2707 190.528 66.2989C190.528 66.2989 150.275 71.4847 160.664 31.3703C159.977 31.336 159.308 31.1334 158.717 30.7803C157.148 29.8349 156.294 27.8356 156.145 25.8068C155.756 25.9106 155.369 26.0142 154.983 26.1175C152.214 26.8649 149.337 27.8334 147.436 29.9814C144.223 33.6117 144.899 39.1218 143.733 43.8268C142.326 49.5006 138.117 54.0898 133.442 57.6C128.419 61.3714 122.552 64.2366 116.298 64.8314C110.045 65.4262 103.39 63.5249 99.0574 58.9777C94.7244 54.4306 93.2156 47.1054 96.2183 41.5889Z" fill="#040F2C"/>
</g>
<defs>
<clipPath id="clip0_160_33">
<rect width="574" height="440" fill="white" transform="matrix(-1 0 0 1 574 0)"/>
</clipPath>
</defs>
</svg>
